<svg width="542" height="351" viewBox="0 0 542 351" fill="none" xmlns="http://www.w3.org/2000/svg">
<path d="M1 7V1L108 1.5L246.5 197L256 209.5V44.5C253.091 25.8429 244.844 12.4957 230 9L224 7H216.5V1.5H336V109.5V303C338.417 322.812 343.764 330.704 358 341L364 343.5L369 345H375V349H250.5L18 18.5L12 12.5L8.5 9.5L6 7.5L4 7H1Z" fill="#770000" stroke="#770000"/>
<path d="M29 322C18.7609 339.684 12.5936 344.19 1 344.5V350C33.4715 349.58 51.7281 349.567 84.5 350V344.5C74.2004 344.439 68.1267 340.589 57 324C48.7541 313.477 45.6615 298.964 41.5 265.5C39.9008 292.043 37.603 305.009 29 322Z" fill="#770000" stroke="#770000"/>
<path d="M541.686 100.312C541.686 157.952 490.423 197.812 427.186 197.812C325.858 194.952 465.408 206.592 460.356 104.452C465.406 -13.9086 325.816 2.81142 412.368 2.81133C491.856 2.81125 541.686 45.4515 541.686 100.312Z" fill="#770000"/>
</svg>
